<svg xmlns="http://www.w3.org/2000/svg" viewBox="0 0 923.21 388.53"><defs><style>.cls-1{fill:#fff;}</style></defs><g id="Capa_2" data-name="Capa 2"><g id="logo"><polygon class="cls-1" points="469.92 74.72 469.92 154.72 520.36 154.72 520.36 135.58 489.63 135.58 489.63 123.99 510.5 123.99 510.5 105.44 489.63 105.44 489.63 93.85 520.36 93.85 520.36 74.72 469.92 74.72"/><polygon class="cls-1" points="405 93.85 422.97 93.85 422.97 154.72 442.68 154.72 442.68 93.85 460.65 93.85 460.65 74.72 405 74.72 405 93.85"/><polygon class="cls-1" points="549.33 74.72 529.62 74.72 529.62 154.72 569.04 154.72 569.04 135.58 549.33 135.58 549.33 74.72"/><polygon class="cls-1" points="577.97 74.72 577.97 154.72 628.4 154.72 628.4 135.58 597.67 135.58 597.67 123.99 618.54 123.99 618.54 105.44 597.67 105.44 597.67 93.85 628.4 93.85 628.4 74.72 577.97 74.72"/><path class="cls-1" d="M657.38,93.85v11.59h28.54L675.79,124H657.38v30.73H637.67v-80H688.1V93.85Z"/><path class="cls-1" d="M690.53,114.6a41.86,41.86,0,1,1,41.74,41.85A41.39,41.39,0,0,1,690.53,114.6Zm64,.23c0-12.17-10.08-22.61-22.14-22.61-12.29,0-22.15,10.44-22.15,22.61a22.15,22.15,0,1,0,44.29,0Z"/><path class="cls-1" d="M781.42,114.6a41.86,41.86,0,1,1,41.74,41.85A41.39,41.39,0,0,1,781.42,114.6Zm64,.23c0-12.17-10.09-22.61-22.14-22.61-12.29,0-22.15,10.44-22.15,22.61a22.15,22.15,0,1,0,44.29,0Z"/><path class="cls-1" d="M923.21,93.85h-18v60.87H885.53V93.85h-18V74.72h55.65Z"/><polygon class="cls-1" points="575 274.72 575 354.72 594.71 354.72 594.71 323.99 615.58 323.99 615.58 305.44 594.71 305.44 594.71 293.85 625.43 293.85 625.43 274.72 575 274.72"/><path class="cls-1" d="M627.86,314.6a41.86,41.86,0,1,1,41.74,41.85A41.39,41.39,0,0,1,627.86,314.6Zm64,.23c0-12.17-10.09-22.61-22.15-22.61-12.28,0-22.14,10.44-22.14,22.61a22.15,22.15,0,1,0,44.29,0Z"/><path class="cls-1" d="M718.75,314.6a41.86,41.86,0,1,1,41.74,41.85A41.39,41.39,0,0,1,718.75,314.6Zm64,.23c0-12.17-10.09-22.61-22.15-22.61-12.29,0-22.14,10.44-22.14,22.61a22.15,22.15,0,1,0,44.29,0Z"/><path class="cls-1" d="M860.54,293.85h-18v60.87H822.86V293.85h-18V274.72h55.66Z"/><path class="cls-1" d="M410.9,354.72v-80h27.34c12.71,0,21.6,1.68,29.92,9.56,7.65,7.2,11.7,17.66,11.7,30.82,0,12.15-3.94,22.16-11.59,29.7-8.55,8.32-16.08,9.9-27.33,9.9Zm49.5-40.27c0-14.4-7.76-22.5-22.16-22.5h-7.76v45.22h7.87C453.31,337.17,460.4,330.19,460.4,314.45Z"/><path class="cls-1" d="M506.63,274.74V324c0,9,2.81,13.61,9.45,13.61,6.86,0,10.12-4.5,10.12-13.61V274.74h19.58v50.05c0,19.58-11.93,31.16-29.81,31.16-18.11,0-29-11.13-29-31.16V274.74Z"/><path class="cls-1" d="M471.41,254.72H450l30.71-80h16l30.71,80h-21.6l-3.94-11.59H475.46ZM488.73,201l-8,25.64H496.6Z"/><path class="cls-1" d="M410.79,254.72v-80h19.46v62.31h20v17.67Z"/><path class="cls-1" d="M582.81,256.29a39.55,39.55,0,0,1-29.7-12.71c-7.54-8-11.36-17.89-11.36-29.7A39.61,39.61,0,0,1,553.9,185,40.33,40.33,0,0,1,583,173.16c18.68,0,34.65,12.26,39.82,32H601.71c-4.28-7.88-10.69-12-18.56-12A20.89,20.89,0,0,0,561.89,214c0,12.72,9.89,22.5,20.92,22.5,7.54,0,14.17-4.05,18.45-11.47h21.26C617.23,244.48,602,256.29,582.81,256.29Z"/><path class="cls-1" d="M669.42,224.12h-20v30.6H629.83v-80H649.4v30.37h20V174.74h19.69v80H669.42Z"/><path class="cls-1" d="M709.69,254.72H688.32l30.71-80h16l30.71,80H744.12l-3.94-11.59H713.74ZM727,201l-8,25.64h15.86Z"/><path class="cls-1" d="M764.92,254.72v-80H784.5v80Z"/><path class="cls-1" d="M793.94,254.72v-80H811.6L841,219.17V174.74h19.58v80H843.33l-29.81-44.55v44.55Z"/><path class="cls-1" d="M869.76,254.72v-80h50.43V192.4H889.33v12.93h21v17.78h-21v13.94h30.86v17.67Z"/><path class="cls-1" d="M200,10.05a75,75,0,0,0-75,0L0,82.22V251.41a75,75,0,0,0,37.5,65l125,72.16,125-72.16a75,75,0,0,0,37.5-65V82.22ZM150,144.72H125v150H75v-150H25v-50H178.87Zm150,0H225v25h68.75l-28.87,50H225v75H175v-150l28.87-50H300Z"/></g></g></svg>