<svg xmlns="http://www.w3.org/2000/svg" viewBox="0 0 858.21 310.83"><defs><style>.cls-1{fill:#cecdc7;}.cls-2{fill:#cc9f53;}</style></defs><g id="Capa_2" data-name="Capa 2"><g id="logo"><polygon class="cls-1" points="404.92 66.64 404.92 146.64 455.36 146.64 455.36 127.51 424.63 127.51 424.63 115.92 445.5 115.92 445.5 97.37 424.63 97.37 424.63 85.77 455.36 85.77 455.36 66.64 404.92 66.64"/><polygon class="cls-1" points="340 85.77 357.97 85.77 357.97 146.64 377.68 146.64 377.68 85.77 395.65 85.77 395.65 66.64 340 66.64 340 85.77"/><polygon class="cls-1" points="484.33 66.64 464.62 66.64 464.62 146.64 504.04 146.64 504.04 127.51 484.33 127.51 484.33 66.64"/><polygon class="cls-1" points="512.97 66.64 512.97 146.64 563.4 146.64 563.4 127.51 532.67 127.51 532.67 115.92 553.54 115.92 553.54 97.37 532.67 97.37 532.67 85.77 563.4 85.77 563.4 66.64 512.97 66.64"/><path class="cls-2" d="M592.38,85.77v11.6h28.54l-10.13,18.55H592.38v30.72H572.67v-80H623.1V85.77Z"/><path class="cls-2" d="M625.53,106.53a41.86,41.86,0,1,1,41.74,41.85A41.4,41.4,0,0,1,625.53,106.53Zm64,.23c0-12.18-10.08-22.61-22.14-22.61-12.29,0-22.15,10.43-22.15,22.61a22.15,22.15,0,1,0,44.29,0Z"/><path class="cls-2" d="M716.42,106.53a41.86,41.86,0,1,1,41.74,41.85A41.4,41.4,0,0,1,716.42,106.53Zm64,.23c0-12.18-10.09-22.61-22.14-22.61-12.29,0-22.15,10.43-22.15,22.61a22.15,22.15,0,1,0,44.29,0Z"/><path class="cls-2" d="M858.21,85.77h-18v60.87H820.53V85.77h-18V66.64h55.65Z"/><path class="cls-2" d="M160,8a60,60,0,0,0-60,0L0,65.77V201.13a60,60,0,0,0,30,52l100,57.74,100-57.74a60,60,0,0,0,30-52V65.77ZM120,115.77H100v120H60v-120H20v-40H143.09Zm120,0H180v20h55l-23.09,40H180v60H140v-120l23.09-40H240Z"/><path class="cls-2" d="M357.24,166.65h24.65c13.51,0,19.78,1.19,25.61,7.68,3.57,3.78,4.76,8.65,4.76,13.29a18.18,18.18,0,0,1-9.3,16.11c12.87,4.54,13.19,15.24,13.19,18.59,0,6.49-2.48,13.4-7.35,17.4-7.57,6.06-12.54,6.92-26.16,6.92h-25.4ZM376.8,197h7.25c2.81,0,8.65,0,8.65-6.38,0-6.05-5.52-6.05-8.65-6.05H376.8Zm0,31.67h9.63c2.59,0,10.16,0,10.16-7.68,0-6.91-7-6.91-10.16-6.91H376.8Z"/><path class="cls-2" d="M443.06,235.08l-4.22,11.56H416.9l32.1-80h16.11l31.78,80H474.73l-3.89-11.56Zm5.62-16.22h16.75l-8.21-27.35h-.33Z"/><path class="cls-2" d="M504.34,166.65h25.29c14.16,0,19.46,1.73,24.64,5.73,6.6,5.19,9.84,13.62,9.84,21.84,0,9.19-4.75,22.59-19.89,25.18L566,246.64H542.6l-18.48-25.83h-.22v25.83H504.34Zm19.56,40.21h7.24c12,0,13.41-7.56,13.41-11.45,0-7.35-5.3-10.81-13.19-10.81H523.9Z"/></g></g></svg>